<?xml version="1.0" standalone="no"?>
<!DOCTYPE svg PUBLIC "-//W3C//DTD SVG 20010904//EN"
 "http://www.w3.org/TR/2001/REC-SVG-20010904/DTD/svg10.dtd">
<svg version="1.0" xmlns="http://www.w3.org/2000/svg"
 width="840.000000pt" height="862.000000pt" viewBox="0 0 840.000000 862.000000"
 preserveAspectRatio="xMidYMid meet">

<g transform="translate(0.000000,862.000000) scale(0.100000,-0.100000)"
fill="#000000" stroke="none">
<path d="M1 6563 c1 -1162 5 -2008 10 -1943 34 473 144 941 325 1377 169 407
370 739 673 1113 101 125 400 427 526 531 712 591 1547 923 2445 972 30 2
-853 4 -1962 5 l-2018 2 1 -2057z"/>
<path d="M4435 8613 c432 -35 719 -90 1065 -204 1177 -389 2146 -1317 2600
-2489 167 -432 258 -830 294 -1285 1 -22 3 866 4 1973 l2 2012 -2002 -2
c-1102 -1 -1985 -3 -1963 -5z"/>
<path d="M3765 8580 c-422 -46 -807 -148 -1189 -315 -1059 -462 -1886 -1345
-2292 -2450 -120 -326 -207 -703 -246 -1065 -20 -191 -17 -746 5 -930 73 -600
248 -1147 525 -1640 81 -145 271 -440 282 -440 4 0 91 40 194 90 102 49 190
90 194 90 4 0 32 13 62 29 30 16 165 72 300 126 135 53 270 107 300 119 97 42
349 132 549 197 l194 64 36 50 c40 54 91 151 91 172 0 68 195 303 301 362 l39
22 0 -28 c0 -19 -10 -39 -30 -58 -16 -16 -30 -34 -30 -39 0 -6 -21 -36 -46
-66 -25 -30 -54 -71 -64 -90 -11 -19 -31 -46 -45 -59 -22 -20 -25 -31 -25 -85
1 -69 24 -146 62 -203 14 -21 40 -72 58 -113 18 -41 45 -93 61 -116 37 -55
179 -197 187 -189 4 4 -2 14 -13 23 -26 22 -77 89 -95 127 -8 17 -18 32 -21
35 -14 11 -49 82 -49 98 0 10 -4 22 -9 27 -6 6 -2 39 10 85 11 41 22 116 26
165 3 50 10 96 16 102 6 9 5 18 -3 28 -10 11 -9 18 3 30 14 14 16 13 20 -7 2
-13 3 -6 2 15 -2 25 1 37 10 37 13 0 35 78 35 126 0 32 18 66 31 58 5 -3 7
-15 3 -27 -6 -19 -5 -20 8 -9 13 10 16 9 21 -8 3 -11 10 -20 16 -20 12 0 4 28
-15 50 -32 39 -239 450 -250 498 -4 15 -11 33 -17 40 -6 8 -6 12 2 12 7 0 9 5
6 10 -4 6 -10 8 -15 5 -4 -3 -11 2 -14 11 -8 22 -8 26 4 19 6 -3 10 -1 10 5 0
6 -6 13 -14 16 -11 4 -12 13 -5 37 12 41 12 67 1 49 -5 -8 -13 13 -21 54 -10
54 -10 69 1 75 10 6 10 22 0 79 -7 39 -12 80 -12 92 0 11 -7 26 -16 33 -13 9
-17 29 -18 76 0 35 -5 67 -10 71 -6 4 -5 16 2 33 7 14 12 50 12 80 0 36 4 55
12 55 9 0 9 3 0 12 -7 7 -12 35 -12 63 0 28 -4 55 -10 61 -13 13 -32 162 -24
187 4 11 -1 23 -11 31 -19 14 -23 104 -15 365 3 119 1 156 -9 159 -9 3 -8 8 4
22 8 9 17 30 19 47 2 16 11 69 21 117 9 49 16 122 16 162 0 41 6 89 14 107 7
17 16 52 19 77 8 68 16 89 32 83 10 -4 14 3 14 26 0 21 5 31 15 31 18 0 20 27
4 32 -12 4 33 84 56 101 6 4 6 10 -2 15 -9 6 -6 16 12 37 47 57 61 70 94 95
40 30 161 150 161 161 0 4 14 13 30 21 17 7 30 16 30 19 0 4 9 9 20 12 11 3
20 12 20 21 0 9 5 16 10 16 11 0 13 1 75 56 22 19 61 46 87 60 26 13 51 29 55
36 11 19 90 68 107 68 8 0 18 5 21 10 4 6 11 8 16 4 5 -3 8 0 7 8 -2 8 9 14
32 16 19 2 39 8 45 13 5 5 19 9 31 9 13 0 29 7 37 15 9 8 17 10 19 5 2 -6 17
-8 35 -4 18 4 31 10 28 13 -2 4 8 6 23 3 16 -2 52 2 82 8 30 6 69 13 85 14 17
1 42 6 57 10 18 5 37 3 59 -8 30 -15 31 -15 36 5 5 18 11 20 45 16 35 -5 37
-4 21 8 -16 12 -15 13 7 8 27 -5 90 22 68 29 -7 3 3 5 22 5 19 0 44 -7 54 -16
18 -15 19 -15 12 3 -5 14 -3 16 6 9 7 -6 35 -13 62 -16 27 -2 52 -11 57 -18 7
-11 9 -9 9 6 1 20 1 20 15 1 8 -11 15 -15 15 -9 0 11 50 8 80 -6 8 -3 34 -6
58 -6 28 0 42 -4 42 -13 0 -9 7 -11 20 -7 13 4 20 2 20 -7 0 -9 17 -13 54 -15
62 -1 116 -28 116 -56 0 -15 5 -17 29 -12 22 5 30 2 35 -12 6 -15 8 -15 16 -3
8 12 10 11 10 -5 0 -11 8 -25 19 -32 17 -11 18 -9 11 23 -4 19 -5 34 -1 34 14
0 31 -17 40 -40 7 -18 10 -20 10 -7 1 24 32 22 38 -3 3 -11 14 -20 25 -20 11
0 27 -8 36 -17 18 -17 19 -20 21 -55 0 -12 4 -18 8 -15 3 4 16 -1 27 -10 12
-10 15 -11 9 -3 -7 8 -13 21 -12 29 0 11 2 12 6 4 2 -7 14 -13 26 -14 12 0 17
-3 10 -6 -9 -3 -5 -18 13 -53 14 -27 22 -55 18 -61 -4 -8 -3 -9 4 -5 8 5 12
-1 12 -14 0 -12 5 -18 10 -15 6 3 10 -1 10 -9 0 -10 -6 -13 -16 -9 -9 3 -5 -6
11 -22 14 -16 23 -35 21 -42 -3 -7 4 -28 15 -47 19 -32 25 -58 28 -114 1 -19
5 -22 21 -17 12 4 20 2 20 -5 0 -6 -4 -8 -10 -5 -5 3 -10 -1 -10 -10 0 -23 30
-85 41 -85 5 0 9 -9 9 -20 0 -11 -7 -20 -15 -20 -8 0 -15 -4 -15 -10 0 -10 14
-14 38 -11 6 1 12 -5 12 -14 0 -9 -4 -14 -9 -10 -5 3 -12 1 -16 -5 -3 -5 -1
-10 4 -10 6 0 11 -11 11 -25 0 -14 4 -25 8 -25 5 0 7 -51 7 -112 -2 -99 -2
-103 4 -34 5 61 9 76 17 65 17 -21 34 -79 37 -126 1 -23 6 -45 10 -49 10 -11
9 -132 -2 -138 -5 -4 -7 3 -4 14 3 11 1 20 -4 20 -5 0 -10 -8 -11 -17 -1 -26
31 -93 45 -93 6 0 15 -9 18 -21 7 -20 0 -126 -11 -182 -5 -23 -2 -29 15 -34
18 -5 20 -11 16 -47 -3 -29 -2 -34 3 -16 l8 25 6 -30 c3 -16 5 -46 4 -66 -2
-27 1 -36 11 -32 14 6 17 -6 7 -31 -3 -9 -10 -13 -15 -11 -13 9 -22 -41 -11
-62 7 -12 7 -25 1 -34 -5 -7 -8 -34 -7 -59 l1 -45 7 45 7 45 1 -42 c1 -23 -2
-45 -8 -48 -5 -3 -10 -13 -10 -21 0 -9 -7 -22 -15 -31 -9 -9 -13 -23 -9 -35 4
-12 0 -24 -11 -32 -15 -10 -15 -18 -6 -52 13 -47 15 -224 2 -224 -5 0 -13 -41
-17 -91 -5 -67 -11 -95 -24 -107 -13 -13 -19 -38 -22 -105 -2 -49 -9 -92 -14
-95 -5 -4 -10 -34 -12 -67 -2 -57 -28 -164 -42 -175 -7 -5 -14 -33 -25 -102
-9 -53 -28 -112 -39 -120 -6 -4 -2 -17 8 -33 14 -21 15 -29 5 -41 -10 -13 -10
-17 2 -26 12 -8 11 -9 -2 -5 -14 5 -36 -22 -45 -55 -1 -5 -3 -9 -4 -10 -1 -2
-4 -15 -5 -30 -5 -36 -30 -84 -73 -137 -19 -24 -40 -57 -47 -75 -19 -51 -38
-86 -47 -86 -4 0 -8 -6 -8 -14 0 -8 -3 -16 -7 -18 -5 -1 -23 -24 -40 -51 -28
-41 -31 -50 -21 -67 17 -27 23 -25 25 6 2 34 27 52 31 22 2 -11 0 -23 -5 -27
-12 -9 -16 -108 -4 -116 6 -3 11 -1 11 6 0 7 3 9 8 5 4 -4 7 -18 7 -29 0 -12
5 -21 12 -20 8 2 11 -28 11 -103 l0 -105 -47 -92 c-39 -78 -94 -167 -178 -287
-10 -14 -53 -63 -96 -109 -43 -46 -76 -86 -73 -88 3 -3 44 33 93 80 73 71 103
110 174 229 47 79 108 187 134 241 43 86 49 105 48 160 0 34 -11 109 -25 167
-46 187 -24 224 65 115 68 -83 94 -143 116 -272 16 -90 37 -159 56 -181 2 -2
79 -29 171 -61 186 -64 299 -106 407 -150 40 -17 137 -55 217 -87 155 -61 683
-286 890 -379 l125 -56 19 23 c47 58 161 225 235 346 147 239 286 530 385 804
282 781 330 1672 136 2495 -131 552 -381 1095 -714 1553 -223 305 -595 681
-886 896 -30 22 -80 58 -110 81 -103 75 -305 196 -465 279 -446 231 -893 372
-1376 435 -239 31 -716 36 -954 9z m300 -1870 c3 -5 -1 -10 -9 -10 -9 0 -16 5
-16 10 0 6 4 10 9 10 6 0 13 -4 16 -10z m48 3 c-7 -2 -19 -2 -25 0 -7 3 -2 5
12 5 14 0 19 -2 13 -5z m1684 -1305 c-3 -8 -6 -5 -6 6 -1 11 2 17 5 13 3 -3 4
-12 1 -19z m-3147 -110 c0 -9 -4 -8 -10 2 -11 17 -13 10 -4 -14 3 -9 12 -16
20 -16 16 0 16 -5 8 -37 -7 -24 -24 -22 -24 3 0 8 5 12 10 9 6 -3 10 -2 10 3
0 6 -7 13 -16 16 -27 10 -35 7 -25 -11 17 -32 24 -57 27 -93 l3 -35 -14 40
c-13 39 -13 38 -13 -50 0 -84 13 -228 17 -177 0 15 5 21 13 16 7 -5 8 -3 3 6
-14 23 -14 58 1 64 7 3 16 1 20 -5 3 -5 14 -7 25 -4 25 8 26 -20 2 -34 -10 -6
-13 -11 -8 -11 6 0 3 -5 -5 -10 -12 -8 -12 -10 -1 -10 10 0 11 -3 2 -13 -6 -8
-18 -31 -26 -53 l-16 -39 20 23 c25 29 29 28 24 -5 -3 -16 -7 -66 -10 -113 -3
-47 -9 -89 -13 -94 -5 -4 -6 -49 -3 -100 4 -62 2 -88 -5 -81 -17 16 -63 224
-56 252 4 14 2 28 -4 32 -5 3 -17 53 -26 111 -13 86 -24 121 -61 193 -47 92
-56 149 -39 236 9 44 24 39 24 -9 0 -45 15 -52 32 -15 11 24 19 29 46 26 6 -1
12 3 12 9 0 6 5 8 10 5 6 -3 10 3 10 14 l0 21 20 -20 c11 -11 20 -26 20 -32z
m-13 -250 c-3 -7 -5 -2 -5 12 0 14 2 19 5 13 2 -7 2 -19 0 -25z m3573 -50 c0
-2 -8 -25 -19 -53 -10 -27 -24 -99 -32 -160 l-14 -110 -7 65 c-16 133 -17 150
-8 150 6 0 10 13 10 29 0 17 5 33 11 36 6 4 8 13 5 20 -2 7 -2 16 1 19 6 6 53
9 53 4z m-95 -179 c4 -5 10 -47 15 -94 9 -88 2 -141 -36 -280 -9 -33 -22 -79
-29 -103 -6 -24 -17 -47 -24 -51 -10 -6 -10 -17 -2 -47 15 -54 14 -80 -5 -98
-11 -11 -14 -25 -9 -47 6 -26 2 -35 -30 -64 -20 -19 -45 -35 -54 -35 -17 0
-18 4 -5 63 8 34 21 138 29 230 8 93 17 173 20 178 11 17 25 9 25 -13 0 -13 5
-30 10 -38 8 -12 10 -10 10 10 0 14 -7 35 -15 47 -13 18 -13 36 -3 124 9 74
17 108 30 121 24 24 23 34 -4 43 -20 6 -20 8 -5 12 9 2 17 12 18 21 0 11 2 12
6 5 8 -20 25 -15 19 5 -4 13 0 18 14 19 11 1 22 -3 25 -8z m-114 -209 l-9 -45
-1 61 c-1 33 2 64 7 68 11 12 13 -34 3 -84z m-3302 -47 c1 4 7 2 15 -5 7 -7
12 -17 10 -23 -2 -5 -8 -37 -12 -70 -8 -58 -9 -59 -20 -32 -7 16 -12 58 -11
95 0 47 3 61 9 47 5 -11 9 -16 9 -12z m-22 -205 c-3 -8 -6 -5 -6 6 -1 11 2 17
5 13 3 -3 4 -12 1 -19z m32 -67 c17 -67 23 -121 13 -121 -20 0 -44 55 -49 111
-5 52 -4 59 10 53 9 -3 21 -22 26 -43z m2941 -866 c0 -28 -15 -33 -24 -8 -4 9
-1 20 6 25 18 11 18 11 18 -17z m-2720 -719 c0 -3 -4 -8 -10 -11 -5 -3 -10 -1
-10 4 0 6 5 11 10 11 6 0 10 -2 10 -4z"/>
<path d="M4368 6723 c7 -3 16 -2 19 1 4 3 -2 6 -13 5 -11 0 -14 -3 -6 -6z"/>
<path d="M4248 6713 c7 -3 16 -2 19 1 4 3 -2 6 -13 5 -11 0 -14 -3 -6 -6z"/>
<path d="M5720 5515 c0 -5 5 -17 10 -25 5 -8 10 -10 10 -5 0 6 -5 17 -10 25
-5 8 -10 11 -10 5z"/>
<path d="M3293 5483 c-12 -2 -20 -10 -17 -16 3 -8 -9 -13 -31 -15 -20 -1 -57
-13 -83 -27 -41 -21 -44 -24 -22 -26 24 -1 23 -2 -4 -8 -29 -6 -51 -34 -25
-30 39 5 39 -4 0 -24 l-44 -22 29 -5 29 -6 -30 -10 -30 -11 32 -5 c18 -2 30
-1 27 4 -3 4 14 8 38 7 24 0 37 -3 31 -6 -10 -3 -10 -8 1 -19 18 -17 30 -18
19 -1 -4 6 -8 16 -8 21 0 5 -9 12 -20 17 -11 4 -18 8 -15 9 3 0 22 3 42 6 33
5 36 4 31 -15 -3 -12 -10 -21 -17 -22 -6 0 6 -7 27 -14 34 -13 41 -13 54 1 14
13 13 14 -10 9 -15 -4 -28 -2 -32 5 -12 19 16 29 62 23 31 -4 43 -2 43 7 0 9
18 11 71 7 62 -5 69 -4 52 8 -17 14 -17 14 4 15 12 0 25 -4 28 -10 3 -5 19
-10 35 -10 16 0 32 -4 35 -10 3 -5 11 -10 16 -10 6 0 7 5 4 10 -10 17 62 11
80 -6 8 -9 31 -16 50 -17 19 -1 37 -7 39 -14 3 -7 14 -13 24 -13 10 0 22 -4
28 -9 5 -5 27 -13 48 -17 36 -6 39 -5 32 12 -5 12 -4 15 2 9 6 -5 12 -19 15
-30 3 -11 5 -1 6 23 1 39 -1 42 -25 42 -19 0 -25 4 -21 14 4 10 1 13 -7 10 -7
-3 -24 6 -37 20 -14 13 -37 28 -52 31 -15 4 -27 11 -27 15 0 12 -28 20 -125
35 -86 12 -134 7 -121 -14 3 -5 -17 -4 -44 1 -34 6 -56 5 -68 -2 -15 -10 -14
-11 5 -7 13 3 26 1 29 -4 3 -5 -15 -9 -40 -9 -25 0 -46 4 -46 9 0 4 -21 7 -46
4 -37 -3 -45 -1 -41 11 5 12 -3 14 -39 12 -24 -1 -44 1 -44 6 0 4 15 7 33 7
17 -1 52 3 77 9 25 5 35 10 23 11 -12 1 -25 6 -29 13 -5 8 10 10 57 6 35 -3
56 -3 46 -1 -9 3 -15 9 -12 14 6 9 -49 10 -92 2z m304 -99 c-3 -3 -12 -4 -19
-1 -8 3 -5 6 6 6 11 1 17 -2 13 -5z m-179 -31 c11 -11 8 -13 -20 -14 -47 -2
-101 -8 -116 -14 -8 -3 -26 -2 -40 2 l-27 7 30 7 c29 6 29 7 -8 8 -21 0 -36 4
-33 9 8 13 200 10 214 -5z m89 11 c-3 -3 -12 -4 -19 -1 -8 3 -5 6 6 6 11 1 17
-2 13 -5z m78 -4 c-4 -6 7 -10 24 -10 17 0 31 -4 31 -10 0 -5 -13 -10 -30 -10
-16 0 -30 5 -30 10 0 6 -15 11 -32 11 l-33 1 30 8 c43 11 47 11 40 0z m95 0
c0 -5 -5 -10 -11 -10 -5 0 -7 5 -4 10 3 6 8 10 11 10 2 0 4 -4 4 -10z m-215
-10 c3 -6 -1 -7 -9 -4 -18 7 -21 14 -7 14 6 0 13 -4 16 -10z"/>
<path d="M5277 5429 c7 -7 15 -10 18 -7 3 3 -2 9 -12 12 -14 6 -15 5 -6 -5z"/>
<path d="M5314 5431 c8 -12 -23 -23 -45 -16 -11 4 -19 2 -19 -4 0 -5 -8 -12
-17 -15 -10 -2 3 -2 28 1 29 3 49 1 53 -6 4 -6 17 -11 29 -11 21 -1 21 -1 3
-11 -10 -6 -21 -7 -25 -3 -3 5 -27 10 -53 10 -27 1 -55 7 -63 14 -9 8 -28 10
-51 5 -23 -4 -34 -3 -30 4 6 9 -40 -2 -75 -19 -8 -4 -51 -16 -95 -25 -43 -10
-90 -25 -104 -35 -14 -9 -29 -16 -35 -14 -5 2 -21 -12 -34 -31 -19 -28 -21
-39 -12 -48 9 -9 14 -9 21 3 8 12 10 9 10 -12 0 -24 2 -25 25 -15 14 7 25 19
25 27 0 12 2 12 9 2 12 -20 18 -19 34 2 8 10 18 16 24 13 5 -3 21 0 36 8 14 7
36 11 49 8 18 -4 20 -3 8 6 -11 8 5 9 60 5 57 -4 71 -2 60 6 -12 9 -9 10 13 6
18 -5 33 -1 43 9 9 8 27 15 42 16 15 0 41 2 57 4 17 2 22 1 13 -1 -17 -5 -14
-34 4 -34 5 0 7 4 4 9 -3 5 10 11 28 13 38 4 42 -7 12 -34 -10 -10 -15 -18
-10 -18 6 0 14 4 20 10 5 5 32 7 60 4 39 -5 51 -10 50 -23 0 -9 -8 -19 -16
-23 -8 -4 14 -6 50 -6 43 0 55 2 36 7 l-29 6 25 14 c15 7 31 10 37 7 7 -5 11
2 11 16 0 34 -112 135 -164 148 -23 6 -51 15 -64 20 -29 12 -45 13 -38 1z
m-167 -57 c-3 -3 -12 -4 -19 -1 -8 3 -5 6 6 6 11 1 17 -2 13 -5z m40 -20 c-3
-3 -12 -4 -19 -1 -8 3 -5 6 6 6 11 1 17 -2 13 -5z m143 -9 c24 -14 23 -14 -27
-15 -49 0 -63 7 -46 23 11 11 46 7 73 -8z m-155 -16 c-7 -11 -35 -12 -35 -1 0
4 9 8 20 9 11 1 18 -2 15 -8z m265 1 c0 -13 -11 -13 -30 0 -12 8 -11 10 8 10
12 0 22 -4 22 -10z m-350 -24 c0 -2 -7 -6 -15 -10 -8 -3 -15 -1 -15 4 0 6 7
10 15 10 8 0 15 -2 15 -4z m-279 -33 c-8 -15 -10 -15 -11 -2 0 17 10 32 18 25
2 -3 -1 -13 -7 -23z m626 11 c-3 -3 -12 -4 -19 -1 -8 3 -5 6 6 6 11 1 17 -2
13 -5z m99 -9 c-20 -15 -36 -19 -36 -10 0 5 38 23 50 24 3 0 -4 -6 -14 -14z"/>
<path d="M3328 5423 c6 -2 18 -2 25 0 6 3 1 5 -13 5 -14 0 -19 -2 -12 -5z"/>
<path d="M5278 5383 c7 -3 16 -2 19 1 4 3 -2 6 -13 5 -11 0 -14 -3 -6 -6z"/>
<path d="M5226 5285 c-14 -11 -16 -15 -5 -15 26 0 59 12 59 21 0 14 -33 10
-54 -6z"/>
<path d="M3158 5253 c6 -2 18 -2 25 0 6 3 1 5 -13 5 -14 0 -19 -2 -12 -5z"/>
<path d="M3992 5235 c6 -14 13 -24 14 -22 6 6 -9 47 -17 47 -5 0 -3 -11 3 -25z"/>
<path d="M3080 5240 c0 -5 11 -10 25 -10 14 0 25 5 25 10 0 6 -11 10 -25 10
-14 0 -25 -4 -25 -10z"/>
<path d="M5410 5196 c0 -9 30 -14 35 -6 4 6 -3 10 -14 10 -12 0 -21 -2 -21 -4z"/>
<path d="M5494 5192 c3 -6 -2 -13 -11 -15 -11 -3 -7 -5 10 -6 29 -1 34 18 7
27 -7 3 -10 0 -6 -6z"/>
<path d="M5538 5173 c6 -2 18 -2 25 0 6 3 1 5 -13 5 -14 0 -19 -2 -12 -5z"/>
<path d="M5528 5113 c12 -2 30 -2 40 0 9 3 -1 5 -23 4 -22 0 -30 -2 -17 -4z"/>
<path d="M3370 5073 c-80 -15 -135 -35 -156 -58 -31 -33 -30 -43 4 -58 15 -6
33 -17 40 -24 7 -7 20 -13 27 -13 8 0 18 -6 22 -14 21 -35 100 -49 123 -21 7
8 8 15 3 15 -6 0 -10 13 -9 30 1 16 6 29 11 28 6 -1 20 3 32 10 21 11 25 9 48
-28 52 -83 145 -106 204 -51 17 16 36 43 42 60 14 40 38 40 83 0 20 -17 40
-28 46 -24 5 3 10 0 10 -8 0 -10 7 -13 20 -10 11 3 20 1 20 -5 0 -6 -10 -13
-22 -15 -17 -3 -15 -5 9 -6 17 0 33 -7 36 -13 2 -7 8 -10 12 -6 12 12 -13 63
-48 96 -68 66 -244 118 -343 101 -27 -4 -62 -8 -79 -8 l-30 0 25 14 c24 13 21
14 -40 13 -36 0 -76 -3 -90 -5z m260 -67 c0 -8 -7 -16 -15 -20 -10 -4 -15 1
-15 14 0 11 7 20 15 20 8 0 15 -6 15 -14z m70 -7 c0 -5 -7 -9 -15 -9 -15 0
-20 12 -9 23 8 8 24 -1 24 -14z"/>
<path d="M5198 5038 c37 -12 41 -23 12 -31 -11 -3 -20 -1 -20 4 0 5 -45 7
-100 5 -62 -3 -98 -1 -94 5 6 10 -6 8 -91 -13 -54 -13 -166 -74 -186 -101 -9
-12 -19 -33 -22 -47 -4 -14 -4 -19 -1 -12 3 6 17 12 32 12 14 0 23 3 19 6 -8
8 18 34 35 34 7 1 29 14 48 30 48 42 74 40 89 -7 20 -67 63 -103 123 -103 49
0 100 31 123 76 19 36 23 38 48 30 16 -6 27 -17 27 -28 0 -10 7 -18 15 -18 8
0 15 -4 15 -10 0 -5 -4 -10 -9 -10 -13 0 -2 -36 12 -38 7 -1 24 -4 40 -8 20
-5 27 -3 27 9 0 16 20 27 49 27 10 0 32 7 49 16 27 13 32 21 32 52 -1 37 -32
88 -48 78 -4 -3 -37 6 -73 18 -35 13 -91 26 -124 29 -52 5 -56 5 -27 -5z
m-178 -78 c0 -23 -25 -27 -33 -6 -7 16 1 26 20 26 7 0 13 -9 13 -20z m70 4 c0
-17 -22 -14 -28 4 -2 7 3 12 12 12 9 0 16 -7 16 -16z"/>
<path d="M3205 4887 c-4 -10 -5 -21 -1 -24 10 -10 18 4 13 24 -4 17 -4 17 -12
0z"/>
<path d="M2 2048 l-2 -2048 1958 2 c1076 1 1939 3 1917 5 -1189 103 -2249 687
-2982 1643 -174 227 -303 437 -444 723 -257 521 -401 1064 -442 1672 -2 28 -4
-871 -5 -1997z"/>
<path d="M4064 4066 c-43 -19 -50 -34 -28 -56 18 -17 23 -18 74 -4 71 18 82
18 108 -6 21 -20 89 -29 77 -10 -3 6 -17 10 -31 10 -14 0 -37 12 -52 28 -29
30 -72 52 -100 52 -9 -1 -31 -7 -48 -14z"/>
<path d="M4454 4063 c-16 -9 -45 -30 -64 -48 -19 -18 -42 -35 -50 -39 -8 -3
-2 -3 15 0 16 3 32 9 35 12 11 15 49 31 54 23 3 -4 26 -14 51 -21 30 -8 53
-23 67 -43 19 -27 25 -29 70 -25 74 8 86 28 18 29 -30 0 -62 3 -70 7 -17 8
-25 32 -10 32 16 0 11 36 -7 52 -34 29 -76 37 -109 21z"/>
<path d="M8390 3958 c0 -103 -43 -397 -85 -589 -107 -486 -277 -913 -533
-1339 -312 -520 -768 -997 -1278 -1338 -571 -381 -1235 -617 -1919 -681 -52
-5 728 -9 1868 -10 l1957 -1 0 2005 c0 1103 -2 2005 -5 2005 -3 0 -5 -24 -5
-52z"/>
<path d="M3912 3970 c3 -8 25 -21 50 -29 50 -15 100 -9 92 12 -3 10 -22 12
-65 9 -45 -3 -64 -1 -71 9 -8 12 -9 11 -6 -1z"/>
<path d="M2951 3594 c0 -11 3 -14 6 -6 3 7 2 16 -1 19 -3 4 -6 -2 -5 -13z"/>
<path d="M3909 3480 c-27 -14 -98 -20 -124 -10 -28 11 -85 -10 -85 -31 0 -32
79 -55 96 -28 3 6 17 9 31 6 13 -2 54 2 91 10 47 10 103 13 190 10 67 -3 122
-2 121 2 0 3 -4 15 -9 26 -7 17 -9 17 -9 3 -1 -10 -8 -18 -16 -18 -8 0 -15 8
-15 18 0 14 -2 15 -10 2 -6 -10 -10 -11 -10 -2 0 6 -5 12 -11 12 -5 0 -7 -4
-4 -10 8 -12 -8 -13 -20 -1 -13 11 -197 21 -216 11z"/>
<path d="M4620 3479 c-14 -3 -50 -4 -81 -2 -42 4 -59 2 -71 -11 -21 -21 -34
-20 -43 2 -6 15 -8 15 -15 -3 -7 -19 -14 -20 -66 -15 -70 6 -104 2 -104 -12 0
-7 55 -8 168 -3 120 5 184 4 227 -5 79 -16 78 -16 95 -23 31 -12 115 -15 137
-4 22 10 22 11 7 29 -13 13 -31 18 -71 18 -33 0 -70 8 -93 19 -36 17 -40 18
-40 3 -1 -15 -2 -15 -13 -1 -8 10 -20 13 -37 8z"/>
<path d="M4136 3120 c-17 -6 -17 -7 5 -21 49 -32 240 -31 313 2 43 20 22 25
-71 16 -126 -12 -143 -12 -188 0 -22 5 -49 7 -59 3z"/>
<path d="M3590 2550 c0 -5 5 -10 11 -10 5 0 7 5 4 10 -3 6 -8 10 -11 10 -2 0
-4 -4 -4 -10z"/>
<path d="M3650 2490 c0 -5 5 -10 11 -10 5 0 7 5 4 10 -3 6 -8 10 -11 10 -2 0
-4 -4 -4 -10z"/>
<path d="M3699 2458 c-6 -20 -6 -39 1 -43 4 -3 10 6 12 20 3 14 1 25 -3 25 -5
0 -9 -1 -10 -2z"/>
<path d="M3746 2404 c-9 -22 -8 -24 9 -24 8 0 15 6 15 14 0 22 -17 28 -24 10z"/>
<path d="M3800 2360 c11 -21 30 -27 30 -10 0 6 9 10 20 10 11 0 20 5 20 10 0
6 -18 10 -40 10 -38 0 -40 -2 -30 -20z"/>
<path d="M3870 2340 c0 -21 34 -80 47 -80 7 0 17 -9 23 -20 6 -12 21 -20 35
-20 18 0 25 -6 25 -18 0 -10 11 -29 25 -42 20 -19 27 -21 39 -11 12 10 27 10
70 1 31 -6 58 -16 62 -22 4 -5 21 -7 39 -4 26 5 36 3 44 -11 9 -17 11 -17 24
2 15 19 17 19 68 3 55 -18 69 -16 69 8 0 8 7 14 15 14 8 0 15 -9 15 -19 0 -18
3 -19 30 -10 17 6 30 15 30 20 0 5 8 9 18 9 10 0 25 9 35 21 12 13 24 18 37
14 16 -5 20 -2 20 17 1 26 44 62 66 54 8 -3 14 1 14 9 0 7 9 17 21 20 11 4 18
12 16 18 -2 7 3 20 12 31 15 18 14 18 -24 13 -58 -7 -138 -28 -151 -38 -17
-14 -357 -16 -443 -3 -128 21 -150 26 -162 40 -13 16 -119 20 -119 4z"/>
<path d="M4145 2131 c-3 -5 -1 -12 5 -16 5 -3 10 1 10 9 0 18 -6 21 -15 7z"/>
<path d="M3265 1980 c3 -5 8 -10 11 -10 2 0 4 5 4 10 0 6 -5 10 -11 10 -5 0
-7 -4 -4 -10z"/>
<path d="M4224 1139 c0 -77 2 -88 13 -73 9 12 11 37 6 86 -5 59 -4 68 11 68
15 0 16 -11 12 -92 -5 -83 -4 -90 8 -68 10 18 13 44 9 93 -4 47 -2 67 6 67 7
0 11 -29 11 -90 l0 -90 64 0 c46 0 65 -4 69 -14 9 -22 -2 -26 -61 -26 -49 0
-54 -2 -49 -20 3 -11 1 -20 -4 -20 -5 0 -9 8 -9 19 0 24 -23 43 -44 35 -13 -5
-16 -21 -16 -74 0 -79 -9 -130 -22 -130 -6 0 -7 38 -3 98 l7 99 -72 6 c-40 3
-78 11 -83 16 -7 7 4 9 32 6 22 -2 41 0 41 5 0 6 10 10 23 10 30 0 51 47 37
84 -5 15 -10 41 -10 57 0 32 -3 33 -82 20 -27 -4 -48 -4 -48 1 0 4 -4 8 -10 8
-13 0 -13 -51 0 -84 8 -23 7 -26 -13 -25 -12 0 -16 3 -9 6 8 3 10 9 4 16 -16
21 -21 61 -10 74 8 10 6 13 -7 13 -15 0 -17 -6 -12 -45 4 -26 3 -45 -3 -45
-14 0 -23 44 -15 70 6 18 4 21 -12 17 -84 -23 -142 -28 -164 -17 -21 12 -26 9
-62 -31 -83 -95 -129 -161 -118 -172 15 -15 44 0 38 22 -3 14 0 17 14 14 27
-7 170 -161 194 -209 11 -21 30 -52 41 -69 12 -16 36 -59 54 -95 35 -70 55
-94 88 -104 14 -5 24 -1 31 11 9 16 10 16 11 -4 0 -13 -4 -23 -10 -23 -5 0
-10 -4 -10 -10 0 -5 16 -10 35 -10 19 0 35 -4 35 -10 0 -5 -15 -10 -34 -10
-19 0 -37 -4 -40 -9 -4 -5 11 -7 34 -4 33 5 40 3 40 -12 0 -14 -7 -16 -40 -13
-22 2 -40 0 -40 -4 0 -5 18 -8 40 -8 22 0 40 -4 40 -10 0 -5 -21 -10 -46 -10
-38 0 -45 -3 -40 -16 3 -9 6 -22 6 -30 0 -8 8 -14 18 -14 9 0 26 -8 37 -16 20
-16 19 -16 -5 -12 -14 3 -32 7 -40 9 -12 3 -16 -8 -18 -51 l-3 -55 92 -3 c55
-2 102 -8 118 -17 l26 -14 -35 -1 -35 -2 43 -15 c24 -8 41 -17 39 -20 -3 -2
-40 1 -84 7 -43 6 -98 10 -123 8 l-45 -3 -3 -62 c-3 -55 -6 -63 -22 -63 -11 0
-20 6 -20 13 0 8 -4 7 -10 -3 -7 -11 -10 -7 -10 17 0 26 -3 30 -20 26 -11 -3
-20 -1 -20 5 0 6 10 12 23 14 16 2 23 11 25 31 3 23 0 27 -22 27 -14 0 -26 -4
-26 -10 0 -5 9 -10 20 -10 11 0 20 -5 20 -11 0 -6 -9 -9 -20 -6 -26 7 -37 -9
-42 -60 l-3 -42 112 -3 113 -3 0 68 c0 60 2 68 18 65 13 -2 18 -17 23 -58 l6
-55 1 53 c3 83 22 61 22 -25 0 -49 4 -73 9 -64 7 11 20 12 57 5 56 -9 289 -9
341 1 28 5 33 10 27 23 -4 9 -18 49 -32 87 -13 39 -29 76 -34 83 -7 8 -8 53
-4 127 4 75 3 122 -4 135 -7 12 -7 26 -1 37 7 15 30 128 33 171 1 6 6 12 12
12 6 0 4 5 -4 10 -8 5 -10 10 -4 10 6 0 10 12 8 28 -2 24 -1 25 11 9 11 -16
13 -16 19 -2 3 9 2 14 -3 11 -5 -3 -12 1 -15 10 -9 24 -7 27 9 14 20 -17 32
-5 15 15 -7 9 -10 19 -6 22 4 4 11 1 15 -6 6 -10 15 0 30 34 12 26 21 51 21
55 0 15 28 19 34 5 8 -22 32 -8 46 26 12 27 9 35 -36 110 -27 44 -64 96 -81
116 -29 31 -37 35 -73 31 -22 -2 -41 1 -43 6 -6 18 -27 -5 -27 -30 0 -13 -4
-24 -10 -24 -5 0 -10 17 -10 38 0 27 -3 33 -10 22 -5 -8 -10 -25 -10 -37 0
-38 -19 -26 -23 15 l-4 37 -1 -41 -2 -41 91 -5 c90 -6 128 -20 100 -37 -11 -7
-11 -10 0 -15 8 -3 2 -4 -13 -1 -15 3 -59 7 -97 10 -85 6 -86 5 -94 -115 -6
-102 8 -77 18 33 4 42 12 77 18 77 15 0 0 -172 -16 -182 -8 -5 -7 -8 4 -8 13
0 18 13 23 58 12 105 18 132 28 132 9 0 4 -111 -8 -173 -2 -11 5 -21 19 -26
18 -7 13 -10 -33 -19 l-55 -11 55 4 c38 2 47 1 30 -5 l-25 -8 24 -1 c13 -1 22
-3 20 -6 -4 -4 -112 6 -239 22 -39 5 -42 7 -20 14 16 4 19 7 8 8 -10 1 -18 8
-18 17 0 14 10 15 73 10 l72 -7 3 90 3 91 -65 0 c-64 0 -90 14 -43 23 l22 4
-22 2 c-38 2 -25 18 15 18 91 0 90 0 94 43 l4 40 -116 0 -115 0 -1 -91z m-246
27 c0 -19 3 -39 7 -45 3 -6 2 -11 -2 -11 -5 0 -8 -17 -7 -37 1 -34 1 -34 -3
-5 -2 18 -7 31 -11 28 -4 -2 -8 20 -9 50 -2 40 1 54 11 54 9 0 14 -12 14 -34z
m-41 18 c-3 -3 -12 -4 -19 -1 -8 3 -5 6 6 6 11 1 17 -2 13 -5z m493 -14 c0 -5
-4 -10 -10 -10 -5 0 -10 5 -10 10 0 6 5 10 10 10 6 0 10 -4 10 -10z m177 -6
c-3 -3 -12 -4 -19 -1 -8 3 -5 6 6 6 11 1 17 -2 13 -5z m-430 -10 c-3 -3 -12
-4 -19 -1 -8 3 -5 6 6 6 11 1 17 -2 13 -5z m490 0 c-3 -3 -12 -4 -19 -1 -8 3
-5 6 6 6 11 1 17 -2 13 -5z m43 -43 c0 -17 -4 -33 -10 -36 -6 -4 -10 8 -10 29
0 20 5 36 10 36 6 0 10 -13 10 -29z m-542 12 c-15 -2 -42 -2 -60 0 -18 2 -6 4
27 4 33 0 48 -2 33 -4z m-148 -25 c0 -19 -2 -20 -10 -8 -13 19 -13 30 0 30 6
0 10 -10 10 -22z m707 -10 c-3 -8 -6 -5 -6 6 -1 11 2 17 5 13 3 -3 4 -12 1
-19z m-680 -20 c-3 -7 -5 -2 -5 12 0 14 2 19 5 13 2 -7 2 -19 0 -25z m540 2
c-2 -29 -17 -24 -17 6 0 14 4 23 9 19 6 -3 9 -14 8 -25z m46 0 c-3 -11 -9 -23
-14 -26 -10 -6 -12 29 -2 39 13 13 21 7 16 -13z m-626 -72 c-2 -13 -4 -5 -4
17 -1 22 1 32 4 23 2 -10 2 -28 0 -40z m603 26 c0 -2 -11 -4 -25 -4 -14 0 -25
4 -25 9 0 4 11 6 25 3 14 -2 25 -6 25 -8z m-570 -56 c0 -34 -4 -48 -9 -38 -8
14 -3 90 5 90 2 0 4 -24 4 -52z m110 32 c16 -6 6 -7 -30 -3 -30 3 -57 7 -59 9
-8 7 64 2 89 -6z m140 -29 c0 -85 -13 -161 -27 -161 -8 0 -12 3 -10 8 3 4 6
45 8 92 3 90 5 100 20 100 5 0 9 -17 9 -39z m295 31 c-29 -5 -29 -5 15 -18
l45 -13 -45 5 c-51 7 -54 9 -45 23 3 6 18 10 33 10 26 -2 26 -2 -3 -7z m-618
-34 c-3 -7 -5 -2 -5 12 0 14 2 19 5 13 2 -7 2 -19 0 -25z m246 -30 c-2 -35 -5
-79 -6 -99 l-2 -36 90 -8 c49 -3 96 -7 103 -8 8 0 12 -10 10 -26 -3 -28 -7
-29 -93 -19 l-50 7 0 -66 c0 -40 -4 -68 -11 -70 -8 -3 -10 18 -6 67 l4 70 -26
0 c-25 0 -26 -2 -26 -59 0 -61 -6 -91 -20 -91 -4 0 -6 32 -3 71 l4 71 -53 -7
c-60 -8 -61 0 -2 15 39 10 39 10 -11 5 -35 -3 -45 -2 -35 5 8 5 31 10 50 11
l35 2 -40 7 -40 7 38 2 c21 0 36 5 33 10 -4 5 2 7 11 5 15 -4 18 2 18 28 2
133 6 168 18 168 10 0 12 -16 10 -62z m167 36 c0 -2 -7 -4 -15 -4 -8 0 -15 4
-15 10 0 5 7 7 15 4 8 -4 15 -8 15 -10z m50 6 c0 -5 -5 -10 -11 -10 -5 0 -7 5
-4 10 3 6 8 10 11 10 2 0 4 -4 4 -10z m-433 -42 c-3 -7 -5 -2 -5 12 0 14 2 19
5 13 2 -7 2 -19 0 -25z m131 25 c-10 -2 -26 -2 -35 0 -10 3 -2 5 17 5 19 0 27
-2 18 -5z m-161 -35 c-3 -8 -6 -5 -6 6 -1 11 2 17 5 13 3 -3 4 -12 1 -19z
m196 15 c-7 -2 -19 -2 -25 0 -7 3 -2 5 12 5 14 0 19 -2 13 -5z m7 -49 c-5 -20
-6 -42 -4 -49 3 -7 0 -16 -7 -20 -8 -6 -10 1 -7 24 4 29 2 31 -26 32 -17 0
-40 4 -51 9 l-20 9 20 1 20 1 -20 9 c-13 5 -1 7 35 5 45 -3 49 -3 20 4 l-35 8
41 2 42 1 -8 -36z m518 -39 c-3 -3 -9 2 -12 12 -6 14 -5 15 5 6 7 -7 10 -15 7
-18z m-571 -32 c-3 -10 -5 -4 -5 12 0 17 2 24 5 18 2 -7 2 -21 0 -30z m328
-30 c-8 -96 -16 -133 -27 -133 -8 0 -3 82 8 140 1 8 3 25 3 38 1 12 6 22 12
22 7 0 9 -22 4 -67z m-408 20 c-3 -10 -5 -4 -5 12 0 17 2 24 5 18 2 -7 2 -21
0 -30z m449 20 c-3 -10 -8 -55 -12 -100 -4 -46 -11 -83 -15 -83 -11 0 -11 22
-3 123 5 57 11 77 21 77 9 0 12 -7 9 -17z m30 -10 c-3 -16 -8 -63 -12 -105 -5
-65 -9 -78 -26 -84 -11 -3 -22 -3 -25 0 -4 3 1 6 9 6 12 0 17 17 22 78 9 101
15 132 28 132 5 0 7 -12 4 -27z m-280 -129 c-3 -26 -6 -57 -6 -70 0 -13 -4
-24 -9 -24 -4 0 -8 32 -9 70 0 57 3 70 15 70 13 0 15 -9 9 -46z m321 40 c-3
-3 -12 -4 -19 -1 -8 3 -5 6 6 6 11 1 17 -2 13 -5z m-210 -24 c-3 -11 0 -20 6
-20 7 0 6 -4 -3 -10 -8 -5 -16 -7 -18 -6 -4 5 9 56 15 56 3 0 3 -9 0 -20z
m-41 -10 c0 -11 -4 -20 -8 -20 -4 0 -8 9 -8 20 0 11 4 20 8 20 4 0 8 -9 8 -20z
m94 -7 c0 -21 -3 -24 -9 -14 -5 8 -7 20 -4 28 8 21 13 15 13 -14z m153 20 c-7
-2 -19 -2 -25 0 -7 3 -2 5 12 5 14 0 19 -2 13 -5z m-153 -62 l45 -8 -40 -3
-40 -3 40 -6 40 -6 -55 -8 c-97 -12 -110 -10 -110 18 0 22 4 25 38 24 20 0 57
-4 82 -8z m105 -31 c-11 -5 -29 -8 -40 -8 -16 0 -15 2 5 8 34 11 60 11 35 0z
m-355 -10 c13 -9 13 -10 0 -10 -8 0 -22 5 -30 10 -13 9 -13 10 0 10 8 0 22 -5
30 -10z m-60 -10 c12 -8 11 -10 -7 -10 -13 0 -23 5 -23 10 0 13 11 13 30 0z
m338 3 c-10 -2 -26 -2 -35 0 -10 3 -2 5 17 5 19 0 27 -2 18 -5z m-271 -60 c-3
-10 -5 -2 -5 17 0 19 2 27 5 18 2 -10 2 -26 0 -35z m46 4 c3 -18 3 -81 2 -142
l-4 -110 9 114 c13 156 18 159 16 9 l-1 -128 -34 0 -34 0 7 61 c3 34 6 102 6
150 0 72 3 87 14 83 8 -3 16 -20 19 -37z m-76 -4 c-3 -10 -5 -4 -5 12 0 17 2
24 5 18 2 -7 2 -21 0 -30z m241 -25 c2 -25 0 -29 -8 -18 -12 18 -13 50 -2 50
4 0 9 -15 10 -32z m19 -15 c-3 -10 -5 -2 -5 17 0 19 2 27 5 18 2 -10 2 -26 0
-35z m80 25 c-3 -8 -6 -5 -6 6 -1 11 2 17 5 13 3 -3 4 -12 1 -19z m-177 -48
c13 -9 13 -10 0 -9 -8 0 -24 4 -35 9 l-20 9 20 0 c11 0 27 -4 35 -9z m203
-207 c2 -13 1 -23 -3 -23 -9 0 -20 117 -19 190 1 39 4 25 10 -45 4 -55 10
-110 12 -122z m16 113 c1 -83 -5 -67 -12 29 -3 46 -2 69 3 55 4 -14 8 -52 9
-84z m-49 53 l0 -31 -67 8 c-38 3 -77 11 -88 15 -15 7 -13 8 10 4 17 -2 55 -1
85 4 l55 9 -60 1 c-73 2 -57 21 18 21 46 0 47 -1 47 -31z m-180 5 c0 -2 -9 -4
-20 -4 -11 0 -20 4 -20 9 0 5 9 7 20 4 11 -3 20 -7 20 -9z m247 -6 c-3 -8 -6
-5 -6 6 -1 11 2 17 5 13 3 -3 4 -12 1 -19z m-254 -25 c-7 -2 -19 -2 -25 0 -7
3 -2 5 12 5 14 0 19 -2 13 -5z m254 -25 c-3 -7 -5 -2 -5 12 0 14 2 19 5 13 2
-7 2 -19 0 -25z m-377 12 c0 -5 -11 -10 -25 -10 -14 0 -25 5 -25 10 0 6 11 10
25 10 14 0 25 -4 25 -10z m310 -10 c0 -5 -25 -10 -56 -10 -34 0 -53 4 -49 10
3 6 28 10 56 10 27 0 49 -4 49 -10z m-5 -40 c4 -6 -7 -10 -25 -10 -18 0 -29 4
-25 10 3 6 15 10 25 10 10 0 22 -4 25 -10z m-311 -41 c-8 -14 -64 -11 -64 4 0
9 11 12 35 9 19 -2 32 -8 29 -13z m303 3 c8 -5 -2 -8 -24 -9 -25 -1 -32 2 -22
8 17 11 30 11 46 1z m-80 -74 c-2 -13 -4 -3 -4 22 0 25 2 35 4 23 2 -13 2 -33
0 -45z m-97 20 c28 -15 30 -18 10 -14 -14 2 -64 8 -112 11 -64 5 -88 11 -88
21 0 21 145 7 190 -18z m225 -28 c14 -6 2 -9 -42 -9 -36 -1 -63 3 -63 9 0 12
77 12 105 0z m105 -20 c0 -5 -2 -10 -4 -10 -3 0 -8 5 -11 10 -3 6 -1 10 4 10
6 0 11 -4 11 -10z m-103 -14 c4 -3 -19 -6 -50 -6 -31 0 -57 4 -57 9 0 9 97 7
107 -3z m-120 -18 c-3 -8 -6 -5 -6 6 -1 11 2 17 5 13 3 -3 4 -12 1 -19z m160
6 c-3 -3 -12 -4 -19 -1 -8 3 -5 6 6 6 11 1 17 -2 13 -5z m-447 -64 c0 -33 -4
-60 -9 -60 -4 0 -7 24 -5 52 2 29 3 56 4 61 0 4 2 7 5 7 3 0 5 -27 5 -60z m30
-6 c0 -30 -4 -54 -10 -54 -6 0 -10 27 -10 61 0 37 4 58 10 54 6 -3 10 -31 10
-61z m28 -1 l-1 -58 -6 45 c-6 42 -4 70 5 70 2 0 3 -26 2 -57z m209 35 c-3 -8
-6 -5 -6 6 -1 11 2 17 5 13 3 -3 4 -12 1 -19z m163 12 c15 -5 -2 -6 -45 -3
-38 3 -72 7 -74 9 -8 8 95 2 119 -6z m-176 -68 c2 -28 1 -52 -3 -52 -4 0 -9
26 -10 57 -2 70 6 67 13 -5z m50 -2 c4 -38 3 -50 -4 -40 -9 13 -15 109 -6 99
2 -2 6 -29 10 -59z m-94 15 c22 -13 23 -14 5 -14 -11 0 -31 6 -45 14 -22 13
-23 14 -5 14 11 0 31 -6 45 -14z m72 -35 c3 -17 1 -30 -4 -30 -4 0 -8 14 -8
30 0 17 2 30 4 30 2 0 6 -13 8 -30z m-382 6 c0 -9 -7 -12 -20 -9 -11 3 -20 9
-20 14 0 5 9 9 20 9 11 0 20 -6 20 -14z m327 -20 c4 -3 -12 -6 -35 -6 -29 0
-42 4 -42 14 0 11 8 12 36 6 19 -5 38 -11 41 -14z m190 2 c-3 -8 -6 -5 -6 6
-1 11 2 17 5 13 3 -3 4 -12 1 -19z"/>
<path d="M4197 783 c18 -2 50 -2 70 0 21 2 7 4 -32 4 -38 0 -55 -2 -38 -4z"/>
<path d="M4343 773 c9 -2 23 -2 30 0 6 3 -1 5 -18 5 -16 0 -22 -2 -12 -5z"/>
<path d="M4233 763 c15 -2 37 -2 50 0 12 2 0 4 -28 4 -27 0 -38 -2 -22 -4z"/>
<path d="M4333 753 c9 -2 25 -2 35 0 9 3 1 5 -18 5 -19 0 -27 -2 -17 -5z"/>
<path d="M4108 893 c12 -2 30 -2 40 0 9 3 -1 5 -23 4 -22 0 -30 -2 -17 -4z"/>
<path d="M4313 643 c9 -2 23 -2 30 0 6 3 -1 5 -18 5 -16 0 -22 -2 -12 -5z"/>
<path d="M4303 623 c9 -2 25 -2 35 0 9 3 1 5 -18 5 -19 0 -27 -2 -17 -5z"/>
<path d="M4184 395 c0 -55 1 -76 3 -47 2 29 2 74 0 100 -2 26 -3 2 -3 -53z"/>
<path d="M4458 1133 c12 -2 30 -2 40 0 9 3 -1 5 -23 4 -22 0 -30 -2 -17 -4z"/>
<path d="M4625 1120 c-13 -6 -15 -9 -5 -9 8 0 22 4 30 9 18 12 2 12 -25 0z"/>
<path d="M4398 1113 c7 -3 16 -2 19 1 4 3 -2 6 -13 5 -11 0 -14 -3 -6 -6z"/>
<path d="M4318 913 c7 -3 16 -2 19 1 4 3 -2 6 -13 5 -11 0 -14 -3 -6 -6z"/>
<path d="M4398 903 c12 -2 30 -2 40 0 9 3 -1 5 -23 4 -22 0 -30 -2 -17 -4z"/>
<path d="M4488 893 c6 -2 18 -2 25 0 6 3 1 5 -13 5 -14 0 -19 -2 -12 -5z"/>
<path d="M4413 883 c9 -2 25 -2 35 0 9 3 1 5 -18 5 -19 0 -27 -2 -17 -5z"/>
<path d="M4007 294 c-13 -18 -14 -22 -3 -18 8 3 17 13 20 21 10 25 3 23 -17
-3z"/>
<path d="M3990 250 c-12 -8 -11 -10 8 -10 12 0 22 5 22 10 0 13 -11 13 -30 0z"/>
<path d="M3990 220 c-23 -7 -23 -8 -3 -9 12 -1 25 4 28 9 3 6 5 10 3 9 -2 -1
-14 -5 -28 -9z"/>
<path d="M4085 221 c19 -9 153 -15 144 -7 -2 2 -40 6 -84 10 -52 4 -73 2 -60
-3z"/>
<path d="M4022 170 c0 -19 2 -27 5 -17 2 9 2 25 0 35 -3 9 -5 1 -5 -18z"/>
<path d="M4043 145 c0 -27 2 -38 4 -22 2 15 2 37 0 50 -2 12 -4 0 -4 -28z"/>
<path d="M4183 80 c0 -41 2 -58 4 -38 2 21 2 55 0 76 -2 20 -4 3 -4 -38z"/>
<path d="M3930 28 c0 -4 35 -7 78 -7 85 1 80 6 -15 12 -35 2 -63 0 -63 -5z"/>
<path d="M4113 13 c9 -2 25 -2 35 0 9 3 1 5 -18 5 -19 0 -27 -2 -17 -5z"/>
</g>
</svg>
